<svg width="45" height="40" xmlns="http://www.w3.org/2000/svg" xmlns:xlink="http://www.w3.org/1999/xlink" xml:space="preserve" overflow="hidden"><defs><clipPath id="clip0"><rect x="172" y="506" width="45" height="40"/></clipPath><clipPath id="clip1"><rect x="173" y="507" width="44" height="39"/></clipPath><clipPath id="clip2"><rect x="173" y="507" width="44" height="39"/></clipPath><clipPath id="clip3"><rect x="173" y="507" width="44" height="39"/></clipPath></defs><g clip-path="url(#clip0)" transform="translate(-172 -506)"><g clip-path="url(#clip1)"><g clip-path="url(#clip2)"><g clip-path="url(#clip3)"><path d="M29.0581 6.08859 39.4139 13.2093 40.3969 11.7811 27.6155 2.99226 27.6126 2.99515C27.4565 2.88818 27.2686 2.83036 27.072 2.84192 26.7048 2.86505 26.3897 3.11657 26.2885 3.46928L22.4029 17.118 17.809 14.3715 16.9185 15.8604 21.9114 18.844 20.9024 22.3884 13.6372 23.8311 6.41528 9.11554 4.857 9.87878 11.8736 24.1809 3.53289 25.8375C3.18018 25.9069 2.90552 26.1902 2.84481 26.5458 2.7841 26.9014 2.95178 27.257 3.26402 27.4391L17.7483 35.8348C17.8784 35.9129 18.0316 35.9533 18.1877 35.9533 18.2137 35.9533 18.2398 35.9533 18.2658 35.9504 18.2918 35.9476 18.3178 35.9447 18.3438 35.9389L38.8646 32.325C39.1248 32.2788 39.3475 32.1198 39.4747 31.8885 39.6019 31.6572 39.6163 31.3826 39.5151 31.1368L29.0581 6.08859ZM27.2772 6.32566 36.3321 28.0116 29.0928 21.1366 29.0899 21.1395C29.0437 21.0961 28.9945 21.0557 28.9396 21.021L23.9438 18.0374 27.2772 6.32566ZM23.4524 19.7633 26.115 21.3534 22.8134 22.0097 23.4524 19.7633ZM6.12907 27.0922 12.6658 25.7941 16.1524 32.9033 6.12907 27.0922ZM17.9767 32.6749 14.4264 25.4443 20.3676 24.2647 17.9767 32.6749ZM22.2815 23.8831 28.2255 22.7036 36.8756 30.9142 19.4077 33.9903 22.2815 23.8831Z" fill="#243A5E" fill-rule="nonzero" fill-opacity="1" transform="matrix(1 0 0 1.00543 173.051 507)"/><path d="M18.2687 36.8178C18.1848 36.8178 18.101 36.8062 18.02 36.7802 17.6673 36.6732 17.4187 36.3552 17.4013 35.988L16.5196 15.6754 5.26175 10.2778C4.93505 10.1216 4.73846 9.7776 4.77316 9.41621 4.80785 9.05483 5.06226 8.75416 5.41208 8.65875L26.8956 2.86794C27.2657 2.76675 27.6531 2.91998 27.8554 3.24089 28.0578 3.5618 28.0289 3.97811 27.7803 4.26722L18.2455 15.421 19.0261 33.415 27.7918 21.258C27.8381 21.1944 27.893 21.1366 27.9566 21.0846L39.6539 11.81 40.7323 13.1688 29.1304 22.3682 18.9741 36.4564C18.8064 36.6877 18.5433 36.8178 18.2687 36.8178ZM8.12101 9.72556 17.1383 14.0477 24.6406 5.27331 8.12101 9.72556Z" fill="#0F78D4" fill-rule="nonzero" fill-opacity="1" transform="matrix(1 0 0 1.00543 173.051 507)"/><path d="M21.8941 35.086C21.8941 37.1314 20.236 38.7895 18.1906 38.7895 16.1452 38.7895 14.4871 37.1314 14.4871 35.086 14.4871 33.0406 16.1452 31.3826 18.1906 31.3826 20.236 31.3826 21.8941 33.0406 21.8941 35.086Z" fill="#50E6FF" fill-rule="nonzero" fill-opacity="1" transform="matrix(1 0 0 1.00543 173.051 507)"/><path d="M21.0672 15.1174C21.0672 17.1628 19.4091 18.8209 17.3638 18.8209 15.3184 18.8209 13.6603 17.1628 13.6603 15.1174 13.6603 13.072 15.3184 11.4139 17.3638 11.4139 19.4091 11.4139 21.0672 13.072 21.0672 15.1174Z" fill="#50E6FF" fill-rule="nonzero" fill-opacity="1" transform="matrix(1 0 0 1.00543 173.051 507)"/><path d="M9.34104 9.49716C9.34104 11.5425 7.68295 13.2006 5.63759 13.2006 3.59222 13.2006 1.93413 11.5425 1.93413 9.49716 1.93413 7.4518 3.59222 5.7937 5.63759 5.7937 7.68295 5.7937 9.34104 7.4518 9.34104 9.49716Z" fill="#50E6FF" fill-rule="nonzero" fill-opacity="1" transform="matrix(1 0 0 1.00543 173.051 507)"/><path d="M43.8951 12.4923C43.8951 14.5377 42.237 16.1958 40.1916 16.1958 38.1463 16.1958 36.4882 14.5377 36.4882 12.4923 36.4882 10.4469 38.1463 8.78885 40.1916 8.78885 42.237 8.78885 43.8951 10.4469 43.8951 12.4923Z" fill="#50E6FF" fill-rule="nonzero" fill-opacity="1" transform="matrix(1 0 0 1.00543 173.051 507)"/><path d="M42.4207 31.4722C42.4207 33.5175 40.7626 35.1756 38.7172 35.1756 36.6718 35.1756 35.0137 33.5175 35.0137 31.4722 35.0137 29.4268 36.6718 27.7687 38.7172 27.7687 40.7626 27.7687 42.4207 29.4268 42.4207 31.4722Z" fill="#0F78D4" fill-rule="nonzero" fill-opacity="1" transform="matrix(1 0 0 1.00543 173.051 507)"/><path d="M7.40692 26.6875C7.40692 28.7328 5.74882 30.3909 3.70346 30.3909 1.6581 30.3909 1.21314e-07 28.7328 1.21314e-07 26.6875 1.21314e-07 24.6421 1.6581 22.984 3.70346 22.984 5.74882 22.984 7.40692 24.6421 7.40692 26.6875Z" fill="#0F78D4" fill-rule="nonzero" fill-opacity="1" transform="matrix(1 0 0 1.00543 173.051 507)"/><path d="M32.1978 21.7669C32.1978 23.8122 30.5397 25.4703 28.4944 25.4703 26.449 25.4703 24.7909 23.8122 24.7909 21.7669 24.7909 19.7215 26.449 18.0634 28.4944 18.0634 30.5397 18.0634 32.1978 19.7215 32.1978 21.7669Z" fill="#0F78D4" fill-rule="nonzero" fill-opacity="1" transform="matrix(1 0 0 1.00543 173.051 507)"/><path d="M30.8246 3.70346C30.8246 5.74882 29.1665 7.40692 27.1211 7.40692 25.0758 7.40692 23.4177 5.74882 23.4177 3.70346 23.4177 1.6581 25.0758 1.21314e-07 27.1211 1.21314e-07 29.1665 1.21314e-07 30.8246 1.6581 30.8246 3.70346Z" fill="#0F78D4" fill-rule="nonzero" fill-opacity="1" transform="matrix(1 0 0 1.00543 173.051 507)"/></g></g></g></g></svg>