<svg data-slug-id="gears-search" xmlns="http://www.w3.org/2000/svg" viewBox="0 0 48 48">
  <path d="M8.47131 34.2746C9.11131 34.8304 9.60816 35.5546 9.90289 36.363L14.2818 33.7946C13.6839 33.1967 13.2376 32.4472 13.0018 31.6135L8.47131 34.2746Z" fill="#50E6FF"/>
  <path d="M4.56414 36.5673L7.30098 34.9588C6.68624 34.5294 5.94519 34.2852 5.14519 34.2852C3.05677 34.2852 1.36414 35.9778 1.36414 38.0662C1.36414 40.1546 3.05677 41.8557 5.14519 41.8557C7.23361 41.8557 8.92624 40.1631 8.92624 38.0746C8.92624 37.7125 8.87572 37.3588 8.77466 37.022L5.83572 38.7483L4.56414 36.5673Z" fill="#0078D4"/>
  <path d="M7.30117 34.9573L4.56433 36.5657L5.84433 38.7467L8.78328 37.0204C8.53907 36.1699 8.00854 35.4457 7.30117 34.9573Z" fill="#0078D4"/>
  <path d="M21.6086 29.7764C21.3813 27.8985 19.7897 26.4417 17.8528 26.4417C15.7644 26.4417 14.0718 28.1343 14.0718 30.2227C14.0718 30.4669 14.097 30.7027 14.1391 30.9385L17.6423 28.8838L21.6086 29.7764Z" fill="#0078D4"/>
  <path d="M15.4191 33.1276C16.0759 33.6834 16.9264 34.0202 17.8528 34.0202C19.2085 34.0202 20.3875 33.3129 21.0612 32.2434L18.0633 31.5781L15.4191 33.1276Z" fill="#0078D4"/>
  <path d="M15.4192 33.1309L18.0634 31.573L21.0613 32.2383C21.4234 31.6572 21.6423 30.9667 21.6423 30.2257C21.6423 30.0741 21.6339 29.9225 21.6171 29.7709L17.6507 28.8867L14.1476 30.9415C14.2992 31.8172 14.7623 32.5836 15.4192 33.1309Z" fill="#0078D4"/>
  <path d="M46.8127 18.0665C46.8127 15.978 45.1201 14.2854 43.0317 14.2854C40.9432 14.2854 39.2506 15.978 39.2506 18.0665C39.2506 18.9759 39.5706 19.818 40.1096 20.4665L41.9538 17.4096L44.118 18.7149L42.2738 21.7717C42.518 21.8222 42.779 21.8475 43.0401 21.8475C45.1201 21.8475 46.8127 20.1549 46.8127 18.0665Z" fill="#0078D4"/>
  <path d="M41.9454 17.4065L40.1012 20.4633C40.6401 21.1202 41.398 21.5918 42.2654 21.7686L44.1096 18.7118L41.9454 17.4065Z" fill="#0078D4"/>
  <path d="M36.1347 13.2051V10.6956H33.5326C33.3136 9.03665 32.6568 7.51244 31.6799 6.24928L33.5157 4.41349L31.7389 2.64507L29.9031 4.47244C28.6315 3.50402 27.0989 2.84718 25.4399 2.62823V0.0429688H22.922V2.63665C21.2547 2.8556 19.7304 3.51244 18.4589 4.48086L16.6231 2.64507L14.8462 4.41349L16.6736 6.24928C15.7052 7.51244 15.0483 9.04507 14.821 10.6956H12.2189V13.2051H14.821C15.0399 14.864 15.6968 16.3882 16.6736 17.6514L14.8378 19.4872L16.6147 21.2556L18.4505 19.4198C19.722 20.3882 21.2547 21.0451 22.9136 21.264V23.8577H25.4315V21.264C27.0989 21.0451 28.6231 20.3882 29.8947 19.4198L31.7304 21.2556L33.5073 19.4872L31.6715 17.6514C32.6399 16.3882 33.2968 14.8556 33.5241 13.2051H36.1347ZM24.1852 17.7103C21.002 17.7103 18.4168 15.1335 18.4168 11.9588C18.4168 8.78402 21.002 6.20718 24.1852 6.20718C27.3683 6.20718 29.9536 8.78402 29.9536 11.9588C29.9536 15.1335 27.3683 17.7103 24.1852 17.7103Z" fill="#0078D4"/>
  <path d="M43.0232 5.07252C44.3874 6.43673 45.1369 8.24726 45.1369 10.1841H47.5369C47.5369 7.52305 46.459 5.12305 44.7158 3.37989C42.9727 1.63673 40.5727 0.558838 37.9116 0.558838V2.95884C39.8485 2.95884 41.659 3.70831 43.0232 5.07252Z" fill="#0078D4"/>
  <path d="M39.5535 8.53938C39.9914 8.97728 40.2356 9.55833 40.2356 10.1731H42.6356C42.6356 8.8678 42.1135 7.69727 41.2545 6.83833C40.404 5.9878 39.2251 5.45728 37.9198 5.45728V7.85728C38.5345 7.8657 39.1156 8.10149 39.5535 8.53938Z" fill="#0078D4"/>
  <path d="M41.5826 22.8951C40.7489 22.6509 40.0163 22.1877 39.4184 21.5898L36.0836 27.1141C36.8836 27.4172 37.6163 27.8635 38.2478 28.4193L41.5826 22.8951Z" fill="#50E6FF"/>
  <path d="M22.8967 30.0627C22.8967 30.1217 22.9052 30.1722 22.9052 30.2312C22.9052 31.0564 22.703 31.8396 22.3494 32.5301L26.5009 33.4564C26.5346 32.5891 26.7283 31.7554 27.0483 30.9891L22.8967 30.0627Z" fill="#50E6FF"/>
  <path d="M33.5661 37.5155C35.6543 37.5155 37.3471 35.8226 37.3471 33.7344C37.3471 31.6462 35.6543 29.9534 33.5661 29.9534C31.4779 29.9534 29.785 31.6462 29.785 33.7344C29.785 35.8226 31.4779 37.5155 33.5661 37.5155Z" fill="#50E6FF"/>
  <path d="M47.6634 46.2068L40.2108 38.7542C41.2887 37.3479 41.9287 35.5879 41.9287 33.6847C41.9287 29.0784 38.1897 25.3479 33.5918 25.3479C28.9855 25.3479 25.255 29.0784 25.255 33.6847C25.255 38.2911 28.9855 42.0216 33.5918 42.0216C35.4361 42.0216 37.1455 41.4153 38.5266 40.4047L45.9961 47.8742L47.6634 46.2068ZM27.6466 33.6847C27.6466 30.4005 30.3076 27.7395 33.5918 27.7395C36.8761 27.7395 39.5371 30.4005 39.5371 33.6847C39.5371 36.969 36.8761 39.63 33.5918 39.63C30.3076 39.6216 27.6466 36.9605 27.6466 33.6847Z" fill="#0078D4"/>
  <path d="M12.2187 7.60613V6.45244H11.0229C10.9219 5.68613 10.6187 4.98718 10.1724 4.40613L11.0145 3.56402L10.1977 2.74718L9.34714 3.58928C8.75767 3.14297 8.05872 2.83981 7.2924 2.73876V1.54297H6.13872V2.73876C5.3724 2.83981 4.67346 3.14297 4.08398 3.58928L3.24188 2.74718L2.42504 3.56402L3.26714 4.40613C2.82083 4.98718 2.51767 5.68613 2.41661 6.45244H1.22083V7.60613H2.41661C2.51767 8.37244 2.82083 9.07139 3.26714 9.65244L2.42504 10.4945L3.24188 11.3114L4.08398 10.4693C4.67346 10.9156 5.3724 11.2188 6.13872 11.3198V12.5156H7.30083V11.3198C8.06714 11.2188 8.76609 10.9156 9.35556 10.4693L10.1977 11.3114L11.0145 10.4945L10.1724 9.65244C10.6187 9.07139 10.9219 8.37244 11.0229 7.60613H12.2187ZM6.71977 9.67771C5.25451 9.67771 4.06714 8.49034 4.06714 7.03349C4.06714 5.57665 5.25451 4.38086 6.71977 4.38086C8.18504 4.38086 9.3724 5.56823 9.3724 7.02507C9.3724 8.48192 8.18504 9.67771 6.71977 9.67771Z" fill="#50E6FF"/>
</svg>
