<svg width="200" height="200" xmlns="http://www.w3.org/2000/svg" xmlns:xlink="http://www.w3.org/1999/xlink" xml:space="preserve" overflow="hidden"><defs><clipPath id="clip0"><rect x="0" y="0" width="200" height="200"/></clipPath></defs><g clip-path="url(#clip0)"><path d="M50.2843 62.224C43.6257 48.9067 32.1452 56.943 32.1452 64.5201 32.1452 75.7709 50.2843 89.5475 50.2843 89.5475 50.2843 89.5475 68.4234 75.5413 68.4234 64.5201 68.4234 56.943 57.1726 48.9067 50.2843 62.224Z" stroke="#4DC878" stroke-width="5.57155" stroke-linecap="butt" stroke-linejoin="miter" stroke-miterlimit="4" stroke-opacity="1" fill="#4DC878" fill-rule="nonzero" fill-opacity="1" transform="matrix(1.00137 0 0 1 -12.8772 -11.8831)"/><path d="M170.14 39.2631C163.482 25.9458 152.001 33.9821 152.001 41.3296 152.001 52.5804 170.14 66.357 170.14 66.357 170.14 66.357 188.279 52.5804 188.279 41.5592 188.279 33.9821 176.799 25.9458 170.14 39.2631Z" stroke="#4DC878" stroke-width="5.57155" stroke-linecap="butt" stroke-linejoin="miter" stroke-miterlimit="4" stroke-opacity="1" fill="#4DC878" fill-rule="nonzero" fill-opacity="1" transform="matrix(1.00137 0 0 1 -12.8772 -11.8831)"/><path d="M50.2843 48.6771C53.0397 46.8402 56.2542 45.9218 59.4687 45.9218 61.3056 45.9218 63.1424 46.1514 64.7497 46.8402 87.481 30.538 117.33 27.5531 142.817 39.2631 143.276 36.2782 144.424 33.2933 146.261 30.7676 113.427 15.843 74.8525 22.7313 49.1363 47.9883 49.5955 48.2179 49.8251 48.4475 50.2843 48.6771Z" stroke="#4DC878" stroke-width="5.57155" stroke-linecap="butt" stroke-linejoin="miter" stroke-miterlimit="4" stroke-opacity="1" fill="#4DC878" fill-rule="nonzero" fill-opacity="1" transform="matrix(1.00137 0 0 1 -12.8772 -11.8831)"/><path d="M178.176 71.8676C191.264 95.0581 191.723 123.07 179.325 146.49 182.08 148.787 183.917 151.771 185.065 154.986 201.597 127.433 201.597 92.9916 185.065 65.2089 182.998 67.7346 180.702 69.8011 178.176 71.8676Z" stroke="#4DC878" stroke-width="5.57155" stroke-linecap="butt" stroke-linejoin="miter" stroke-miterlimit="4" stroke-opacity="1" fill="#4DC878" fill-rule="nonzero" fill-opacity="1" transform="matrix(1.00137 0 0 1 -12.8772 -11.8831)"/><path d="M141.209 181.85C101.717 198.841 55.795 180.702 38.5743 141.209 31.4564 124.448 30.3084 105.85 35.3598 88.3994 32.8341 85.8737 30.538 82.8888 28.4715 79.9039 11.7101 125.137 34.6709 175.421 79.9039 192.183 102.176 200.449 126.744 199.301 148.098 188.968 145.572 186.672 143.276 184.376 141.209 181.85Z" stroke="#4DC878" stroke-width="5.57155" stroke-linecap="butt" stroke-linejoin="miter" stroke-miterlimit="4" stroke-opacity="1" fill="#4DC878" fill-rule="nonzero" fill-opacity="1" transform="matrix(1.00137 0 0 1 -12.8772 -11.8831)"/><path d="M158.66 158.43C152.001 145.113 140.521 153.149 140.521 160.497 140.521 171.747 158.66 185.524 158.66 185.524 158.66 185.524 176.799 171.977 176.799 160.726 176.799 153.149 165.318 145.113 158.66 158.43Z" stroke="#4DC878" stroke-width="5.57155" stroke-linecap="butt" stroke-linejoin="miter" stroke-miterlimit="4" stroke-opacity="1" fill="#4DC878" fill-rule="nonzero" fill-opacity="1" transform="matrix(1.00137 0 0 1 -12.8772 -11.8831)"/><path d="M58.091 110.901C55.5654 110.442 53.9581 107.916 54.6469 105.39 57.4022 92.9916 69.5715 85.1849 81.9704 87.7106 90.9251 89.5475 97.8134 96.4357 99.6503 105.39 100.109 107.916 98.5022 110.212 96.2061 110.901 95.9765 110.901 95.5173 110.901 95.2877 110.901 93.2212 110.901 91.1547 109.294 90.6955 107.227 89.0882 99.8799 81.7408 95.0581 74.3933 96.6653 69.1123 97.8134 64.9793 101.946 63.8313 107.227 62.9128 109.753 60.3871 111.36 58.091 110.901Z" stroke="#4DC878" stroke-width="5.57155" stroke-linecap="butt" stroke-linejoin="miter" stroke-miterlimit="4" stroke-opacity="1" fill="#4DC878" fill-rule="nonzero" fill-opacity="1" transform="matrix(1.00137 0 0 1 -12.8772 -11.8831)"/><path d="M110.212 158.43C97.3542 158.43 85.1849 152.69 76.919 143.046 75.3117 140.98 75.5413 138.225 77.6078 136.617 79.4447 135.01 82.2 135.24 83.8072 137.077 96.2061 151.542 118.019 153.379 132.714 140.98 134.092 139.832 135.469 138.454 136.617 137.077 138.225 135.01 140.98 134.78 143.046 136.388 145.113 137.995 145.342 140.75 143.735 142.817 143.735 142.817 143.506 143.046 143.506 143.046 135.24 152.69 123.07 158.43 110.212 158.43Z" stroke="#4DC878" stroke-width="5.57155" stroke-linecap="butt" stroke-linejoin="miter" stroke-miterlimit="4" stroke-opacity="1" fill="#4DC878" fill-rule="nonzero" fill-opacity="1" transform="matrix(1.00137 0 0 1 -12.8772 -11.8831)"/><path d="M162.333 110.901C162.104 110.901 161.645 110.901 161.415 110.901 159.349 110.901 157.282 109.294 156.823 107.227 155.216 99.8799 147.868 95.0581 140.521 96.6653 135.24 97.8134 131.107 101.946 129.959 107.227 129.27 109.753 126.974 111.131 124.448 110.671 122.152 110.212 120.545 107.687 121.004 105.39 123.759 92.9916 135.928 85.1849 148.327 87.7106 157.282 89.5475 164.17 96.4357 166.007 105.39 166.466 107.916 164.859 110.442 162.333 110.901Z" stroke="#4DC878" stroke-width="5.57155" stroke-linecap="butt" stroke-linejoin="miter" stroke-miterlimit="4" stroke-opacity="1" fill="#4DC878" fill-rule="nonzero" fill-opacity="1" transform="matrix(1.00137 0 0 1 -12.8772 -11.8831)"/></g></svg>