<svg width="197" height="197" xmlns="http://www.w3.org/2000/svg" xmlns:xlink="http://www.w3.org/1999/xlink" xml:space="preserve" overflow="hidden"><defs><clipPath id="clip0"><rect x="66" y="93" width="197" height="197"/></clipPath></defs><g clip-path="url(#clip0)" transform="translate(-66 -93)"><path d="M197.333 135.802C206.4 135.802 213.75 128.452 213.75 119.386 213.75 110.319 206.4 102.969 197.333 102.969 188.267 102.969 180.917 110.319 180.917 119.386 180.917 128.452 188.267 135.802 197.333 135.802ZM197.333 107.073C204.133 107.073 209.646 112.586 209.646 119.386 209.646 126.186 204.133 131.698 197.333 131.698 190.533 131.698 185.021 126.186 185.021 119.386 185.025 112.586 190.534 107.074 197.333 107.065Z" stroke="#C55A11" stroke-width="2.05208" fill="#C55A11"/><path d="M140.78 231.938C139.752 233.902 137.714 235.127 135.498 235.113L97.0111 235.113C93.6678 235.113 90.9574 232.403 90.9574 229.059 90.9574 225.716 93.6678 223.006 97.0111 223.006L130.641 223.006C131.396 223.006 132.091 222.59 132.449 221.924L142.093 203.95C141.081 202.597 140.321 201.072 139.848 199.45L129.409 218.904 97.0111 218.904C91.4011 218.904 86.8533 223.451 86.8533 229.061 86.8533 234.671 91.4011 239.219 97.0111 239.219L135.498 239.219C139.227 239.245 142.659 237.186 144.392 233.884L154.383 215.466 151.254 212.636Z" stroke="#C55A11" stroke-width="2.05208" fill="#C55A11"/><path d="M241.248 148.525C240.492 145.871 238.686 143.639 236.247 142.346 233.88 141.145 231.14 140.904 228.599 141.673 226.056 142.446 223.943 144.231 222.759 146.611L216.828 157.807 210.705 153.947 210.705 153.947 201.856 148.373 201.836 148.361 201.836 148.361 192.068 142.205 192.068 142.205 188.058 139.681C186.479 138.647 184.626 138.112 182.739 138.146L148.88 138.146C145.2 138.119 141.814 140.148 140.103 143.405L127.175 167.265C125.86 169.552 125.543 172.279 126.298 174.806 127.046 177.419 128.824 179.614 131.223 180.889 132.681 181.639 134.288 182.053 135.927 182.101 139.589 182.072 142.947 180.061 144.704 176.848L154.878 158.191 161.982 158.191 144.539 190.735C142.359 194.787 143.223 199.804 146.635 202.893L176.663 230.139 174.918 269.128C174.671 271.765 175.523 274.386 177.272 276.374 179.066 278.416 181.618 279.632 184.333 279.74L184.731 279.74C190.057 279.69 194.435 275.524 194.75 270.208L196.736 226.447C196.961 223.466 195.761 220.554 193.5 218.598L175.335 201.742 197.381 160.667C197.948 159.686 197.613 158.431 196.632 157.864 195.651 157.296 194.395 157.631 193.828 158.612 193.806 158.65 193.786 158.688 193.767 158.726L170.97 201.204C170.528 202.027 170.697 203.044 171.381 203.679L190.736 221.641C192.07 222.759 192.78 224.455 192.64 226.19L190.648 270.023C190.456 273.157 187.872 275.609 184.731 275.635L184.428 275.635C182.861 275.571 181.39 274.864 180.363 273.68 179.339 272.506 178.85 270.959 179.012 269.409L180.804 229.357C180.833 228.747 180.586 228.155 180.133 227.746L149.382 199.854C147.369 198.028 146.861 195.064 148.151 192.672L167.223 157.105C167.759 156.106 167.384 154.863 166.386 154.326 166.087 154.166 165.754 154.082 165.415 154.082L153.655 154.082C152.903 154.083 152.212 154.494 151.853 155.154L141.09 174.888C140.046 176.773 138.076 177.956 135.923 177.993 134.936 177.947 133.972 177.688 133.095 177.234 131.701 176.48 130.672 175.192 130.245 173.665 129.799 172.191 129.985 170.599 130.756 169.266L143.708 145.351C144.714 143.432 146.707 142.235 148.873 142.25L182.733 142.25C183.829 142.22 184.907 142.528 185.823 143.13L188.916 145.08 188.916 145.08 202.829 153.844 202.829 153.844 216.502 162.463C217.461 163.067 218.728 162.78 219.332 161.821 219.36 161.778 219.385 161.733 219.41 161.687L226.403 148.492C227.088 147.101 228.318 146.055 229.801 145.601 231.306 145.144 232.928 145.282 234.334 145.985 235.777 146.749 236.847 148.068 237.298 149.637 237.702 151.113 237.487 152.689 236.703 154.002L225.726 174.948C224.974 176.41 223.628 177.475 222.032 177.87 220.416 178.3 218.693 178.027 217.288 177.119L199.27 165.777 198.542 167.168 197.339 169.409 215.059 180.562C217.441 182.112 220.369 182.573 223.112 181.831 225.822 181.138 228.102 179.311 229.368 176.817L240.285 155.972C241.602 153.723 241.949 151.036 241.248 148.525Z" stroke="#C55A11" stroke-width="2.05208" fill="#C55A11"/></g></svg>