<svg width="212" height="212" xmlns="http://www.w3.org/2000/svg" xmlns:xlink="http://www.w3.org/1999/xlink" xml:space="preserve" overflow="hidden"><defs><clipPath id="clip0"><rect x="121" y="44" width="212" height="212"/></clipPath><clipPath id="clip1"><rect x="122" y="45" width="211" height="211"/></clipPath><clipPath id="clip2"><rect x="122" y="45" width="211" height="211"/></clipPath><clipPath id="clip3"><rect x="122" y="45" width="211" height="211"/></clipPath></defs><g clip-path="url(#clip0)" transform="translate(-121 -44)"><g clip-path="url(#clip1)"><g clip-path="url(#clip2)"><g clip-path="url(#clip3)"><path d="M170.134 104.564C163.76 91.8156 152.771 99.5083 152.771 106.761 152.771 117.531 170.134 130.719 170.134 130.719 170.134 130.719 187.498 117.311 187.498 106.761 187.498 99.5083 176.728 91.8156 170.134 104.564Z" stroke="#4DC878" stroke-width="5.33333" stroke-linecap="butt" stroke-linejoin="miter" stroke-miterlimit="4" stroke-opacity="1" fill="#92D050" fill-rule="nonzero" fill-opacity="1"/><path d="M284.866 82.5844C278.492 69.8365 267.502 77.5292 267.502 84.5625 267.502 95.3323 284.866 108.52 284.866 108.52 284.866 108.52 302.229 95.3323 302.229 84.7823 302.229 77.5292 291.24 69.8365 284.866 82.5844Z" stroke="#4DC878" stroke-width="5.33333" stroke-linecap="butt" stroke-linejoin="miter" stroke-miterlimit="4" stroke-opacity="1" fill="#92D050" fill-rule="nonzero" fill-opacity="1"/><path d="M170.134 91.5958C172.772 89.8375 175.849 88.9583 178.926 88.9583 180.684 88.9583 182.443 89.1781 183.981 89.8375 205.741 74.2323 234.314 71.375 258.71 82.5844 259.15 79.7271 260.249 76.8698 262.007 74.4521 230.577 60.1656 193.652 66.7594 169.035 90.9365 169.475 91.1562 169.695 91.376 170.134 91.5958Z" stroke="#4DC878" stroke-width="5.33333" stroke-linecap="butt" stroke-linejoin="miter" stroke-miterlimit="4" stroke-opacity="1" fill="#92D050" fill-rule="nonzero" fill-opacity="1"/><path d="M292.558 113.795C305.086 135.994 305.526 162.808 293.657 185.227 296.295 187.425 298.053 190.282 299.152 193.359 314.977 166.984 314.977 134.016 299.152 107.421 297.174 109.839 294.976 111.817 292.558 113.795Z" stroke="#4DC878" stroke-width="5.33333" stroke-linecap="butt" stroke-linejoin="miter" stroke-miterlimit="4" stroke-opacity="1" fill="#92D050" fill-rule="nonzero" fill-opacity="1"/><path d="M257.172 219.075C219.368 235.34 175.409 217.976 158.925 180.172 152.111 164.127 151.012 146.324 155.848 129.62 153.43 127.202 151.232 124.345 149.254 121.488 133.209 164.786 155.189 212.921 198.488 228.966 219.807 236.878 243.325 235.779 263.766 225.889 261.348 223.691 259.15 221.493 257.172 219.075Z" stroke="#4DC878" stroke-width="5.33333" stroke-linecap="butt" stroke-linejoin="miter" stroke-miterlimit="4" stroke-opacity="1" fill="#92D050" fill-rule="nonzero" fill-opacity="1"/><path d="M273.876 196.656C267.502 183.908 256.513 191.601 256.513 198.634 256.513 209.404 273.876 222.592 273.876 222.592 273.876 222.592 291.24 209.624 291.24 198.854 291.24 191.601 280.25 183.908 273.876 196.656Z" stroke="#4DC878" stroke-width="5.33333" stroke-linecap="butt" stroke-linejoin="miter" stroke-miterlimit="4" stroke-opacity="1" fill="#92D050" fill-rule="nonzero" fill-opacity="1"/><path d="M177.607 151.159C175.19 150.72 173.651 148.302 174.31 145.884 176.948 134.016 188.597 126.543 200.466 128.96 209.038 130.719 215.631 137.312 217.39 145.884 217.829 148.302 216.291 150.5 214.093 151.159 213.873 151.159 213.433 151.159 213.214 151.159 211.235 151.159 209.257 149.621 208.818 147.643 207.279 140.609 200.246 135.994 193.213 137.532 188.157 138.631 184.201 142.588 183.102 147.643 182.223 150.06 179.805 151.599 177.607 151.159Z" stroke="#4DC878" stroke-width="5.33333" stroke-linecap="butt" stroke-linejoin="miter" stroke-miterlimit="4" stroke-opacity="1" fill="#92D050" fill-rule="nonzero" fill-opacity="1"/><path d="M227.5 196.656C215.192 196.656 203.543 191.161 195.63 181.93 194.092 179.952 194.311 177.315 196.29 175.776 198.048 174.238 200.685 174.457 202.224 176.216 214.093 190.062 234.973 191.821 249.04 179.952 250.358 178.853 251.677 177.534 252.776 176.216 254.315 174.238 256.952 174.018 258.93 175.556 260.908 177.095 261.128 179.732 259.59 181.71 259.59 181.71 259.37 181.93 259.37 181.93 251.457 191.161 239.808 196.656 227.5 196.656Z" stroke="#4DC878" stroke-width="5.33333" stroke-linecap="butt" stroke-linejoin="miter" stroke-miterlimit="4" stroke-opacity="1" fill="#92D050" fill-rule="nonzero" fill-opacity="1"/><path d="M277.393 151.159C277.173 151.159 276.733 151.159 276.514 151.159 274.535 151.159 272.557 149.621 272.118 147.643 270.579 140.609 263.546 135.994 256.513 137.532 251.457 138.631 247.501 142.588 246.402 147.643 245.743 150.06 243.545 151.379 241.127 150.94 238.929 150.5 237.391 148.082 237.83 145.884 240.468 134.016 252.117 126.543 263.985 128.96 272.557 130.719 279.151 137.312 280.909 145.884 281.349 148.302 279.81 150.72 277.393 151.159Z" stroke="#4DC878" stroke-width="5.33333" stroke-linecap="butt" stroke-linejoin="miter" stroke-miterlimit="4" stroke-opacity="1" fill="#92D050" fill-rule="nonzero" fill-opacity="1"/></g></g></g></g></svg>