<svg width="212" height="212" xmlns="http://www.w3.org/2000/svg" xmlns:xlink="http://www.w3.org/1999/xlink" xml:space="preserve" overflow="hidden"><defs><clipPath id="clip0"><rect x="365" y="52" width="212" height="212"/></clipPath><clipPath id="clip1"><rect x="366" y="53" width="211" height="211"/></clipPath><clipPath id="clip2"><rect x="366" y="53" width="211" height="211"/></clipPath><clipPath id="clip3"><rect x="366" y="53" width="211" height="211"/></clipPath></defs><g clip-path="url(#clip0)" transform="translate(-365 -52)"><g clip-path="url(#clip1)"><g clip-path="url(#clip2)"><g clip-path="url(#clip3)"><path d="M430.839 133.688C428.057 134.902 426.786 138.14 428 140.922 429.214 143.703 432.453 144.974 435.234 143.76 438.016 142.546 439.286 139.307 438.073 136.526 437.518 135.256 436.505 134.242 435.234 133.688L435.234 118.955 426.443 118.955 426.443 110.779C429.224 109.565 430.495 106.326 429.281 103.545 428.067 100.764 424.828 99.4928 422.047 100.707 419.266 101.921 417.995 105.159 419.209 107.941 419.763 109.211 420.777 110.225 422.047 110.779L422.047 118.953 410.657 118.938C410.235 120.113 409.921 121.289 409.591 122.527 409.521 122.795 409.446 123.065 409.371 123.333L430.839 123.353Z" stroke="#ED7D31" stroke-width="5.33333" stroke-linecap="butt" stroke-linejoin="miter" stroke-miterlimit="4" stroke-opacity="1" fill="#0070C0" fill-rule="nonzero" fill-opacity="1"/><path d="M544.031 165.125 528.866 138.75 528.866 137.651C530.158 101.175 501.635 70.5577 465.159 69.2657 465.148 69.2654 465.137 69.265 465.126 69.2646 464.308 69.2367 463.495 69.2221 462.684 69.2206 427.168 69.1893 398.016 97.3115 396.771 132.806L396.771 137.642C396.685 158.443 406.268 178.103 422.706 190.849L422.706 246.472 492.16 246.472 492.16 220.097 502.93 220.097C517.242 220.068 528.837 208.473 528.866 194.161L528.866 180.534 538.536 180.534C544.251 179.855 549.306 173.259 544.031 165.125ZM541.455 173.696C540.833 174.972 539.636 175.871 538.238 176.114L524.47 176.114 524.47 194.137C524.453 206.026 514.819 215.66 502.93 215.677L487.765 215.677 487.765 242.052 427.102 242.052 427.102 188.691 425.397 187.372C410.008 175.48 401.048 157.091 401.167 137.644L401.167 132.888C402.292 99.7545 429.536 73.5091 462.689 73.6209 463.446 73.6209 464.207 73.6348 464.972 73.6626 499.012 74.8926 525.633 103.444 524.481 137.486L524.481 139.917 525.065 140.934 540.231 167.309 540.29 167.41 540.354 167.509C541.782 169.234 542.203 171.58 541.464 173.694Z" stroke="#ED7D31" stroke-width="5.33333" stroke-linecap="butt" stroke-linejoin="miter" stroke-miterlimit="4" stroke-opacity="1" fill="#0070C0" fill-rule="nonzero" fill-opacity="1"/><path d="M494.578 100.255C493.937 100.261 493.302 100.38 492.703 100.607L485.786 94.3824 485.786 84.65C484.336 84.072 482.859 83.4917 481.391 82.995L481.391 96.2528 489.523 103.578C488.324 106.366 489.611 109.598 492.399 110.798 495.187 111.997 498.419 110.709 499.618 107.922 500.817 105.134 499.53 101.902 496.742 100.702 496.058 100.408 495.322 100.256 494.578 100.255Z" stroke="#ED7D31" stroke-width="5.33333" stroke-linecap="butt" stroke-linejoin="miter" stroke-miterlimit="4" stroke-opacity="1" fill="#0070C0" fill-rule="nonzero" fill-opacity="1"/><path d="M470.401 144.214C469.684 144.214 468.975 144.356 468.313 144.631L452.818 129.083 452.818 103.565 466.005 103.565 466.005 113.895C463.224 115.109 461.953 118.348 463.167 121.129 464.381 123.911 467.62 125.182 470.401 123.968 473.182 122.754 474.453 119.515 473.239 116.734 472.685 115.463 471.671 114.45 470.401 113.895L470.401 99.1672 452.818 99.1672 452.818 93.1933C455.599 91.9794 456.87 88.7408 455.656 85.9593 454.442 83.1781 451.203 81.9072 448.422 83.1211 445.641 84.335 444.37 87.5739 445.584 90.3551 446.138 91.6253 447.152 92.639 448.422 93.1933L448.422 130.822 455.675 138.314 444.026 149.963 444.026 160.72 430.77 160.72 422.295 150.766C423.619 147.941 422.402 144.578 419.577 143.254 416.753 141.93 413.389 143.147 412.065 145.971 410.742 148.796 411.959 152.159 414.783 153.483 416.083 154.092 417.566 154.184 418.93 153.739L428.711 165.118 444.026 165.118 444.026 168.854C441.245 170.068 439.974 173.307 441.188 176.088 442.402 178.87 445.641 180.14 448.422 178.927 451.203 177.713 452.474 174.474 451.26 171.693 450.706 170.422 449.692 169.409 448.422 168.854L448.422 151.697 458.752 141.367 465.234 147.895C464.24 150.755 465.752 153.879 468.611 154.873 471.471 155.867 474.595 154.355 475.589 151.495 476.583 148.636 475.071 145.512 472.211 144.518 471.629 144.315 471.017 144.212 470.401 144.214Z" stroke="#ED7D31" stroke-width="5.33333" stroke-linecap="butt" stroke-linejoin="miter" stroke-miterlimit="4" stroke-opacity="1" fill="#0070C0" fill-rule="nonzero" fill-opacity="1"/></g></g></g></g></svg>