<svg width="200" height="200" xmlns="http://www.w3.org/2000/svg" xmlns:xlink="http://www.w3.org/1999/xlink" xml:space="preserve" overflow="hidden"><defs><clipPath id="clip0"><rect x="0" y="0" width="200" height="200"/></clipPath></defs><g clip-path="url(#clip0)"><path d="M65.0229 80.9171C62.2337 82.1345 60.9593 85.3823 62.1767 88.1717 63.394 90.9608 66.6421 92.2353 69.4312 91.0179 72.2204 89.8006 73.4948 86.5525 72.2775 83.7634 71.7216 82.4896 70.705 81.473 69.4312 80.9171L69.4312 66.1426 60.6146 66.1426 60.6146 57.9431C63.4037 56.7257 64.6782 53.4779 63.4608 50.6885 62.2434 47.8994 58.9954 46.6249 56.2062 47.8423 53.4171 49.0597 52.1426 52.3077 53.36 55.0969 53.9159 56.3707 54.9324 57.3872 56.2062 57.9431L56.2062 66.1404 44.7842 66.125C44.361 67.3042 44.0458 68.4834 43.7152 69.7244 43.6447 69.9933 43.5697 70.2644 43.4948 70.5333L65.0229 70.5531Z" stroke="#ED7D31" stroke-width="5.3485" stroke-linecap="butt" stroke-linejoin="miter" stroke-miterlimit="4" stroke-opacity="1" fill="#0070C0" fill-rule="nonzero" fill-opacity="1" transform="matrix(1.00001 0 0 1 -6.09203 -5.79995)"/><path d="M178.537 112.443 163.329 85.9933 163.329 84.8912C164.624 48.3116 136.021 17.6076 99.4414 16.312 99.4301 16.3116 99.4189 16.3112 99.4079 16.3108 98.5879 16.2829 97.7717 16.2682 96.959 16.2667 61.3415 16.2354 32.107 44.4375 30.8583 80.0333L30.8583 84.8824C30.7724 105.742 40.3827 125.458 56.8675 138.241L56.8675 194.022 126.519 194.022 126.519 167.572 137.32 167.572C151.672 167.543 163.3 155.915 163.329 141.563L163.329 127.897 173.027 127.897C178.758 127.216 183.827 120.601 178.537 112.443ZM175.954 121.04C175.33 122.319 174.13 123.22 172.727 123.464L158.92 123.464 158.92 141.538C158.903 153.461 149.242 163.122 137.32 163.139L122.111 163.139 122.111 189.589 61.2758 189.589 61.2758 136.076 59.5654 134.754C44.1331 122.829 35.1476 104.387 35.2667 84.8846L35.2667 80.1148C36.3956 46.8875 63.7171 20.5674 96.9635 20.6795 97.7232 20.6795 98.4865 20.6934 99.2536 20.7214 133.39 21.9549 160.086 50.5869 158.931 84.7259L158.931 87.1637 159.518 88.1843 174.726 114.634 174.786 114.736 174.85 114.835C176.282 116.564 176.704 118.918 175.963 121.037Z" stroke="#ED7D31" stroke-width="5.3485" stroke-linecap="butt" stroke-linejoin="miter" stroke-miterlimit="4" stroke-opacity="1" fill="#0070C0" fill-rule="nonzero" fill-opacity="1" transform="matrix(1.00001 0 0 1 -6.09203 -5.79995)"/><path d="M128.944 47.3896C128.301 47.3951 127.664 47.5145 127.064 47.7422L120.127 41.5 120.127 31.74C118.672 31.1603 117.191 30.5784 115.719 30.0802L115.719 43.3758 123.874 50.7223C122.671 53.5178 123.963 56.759 126.758 57.9618 129.554 59.1644 132.795 57.8732 133.998 55.0777 135.2 52.2822 133.909 49.0409 131.114 47.8381 130.428 47.5432 129.69 47.3907 128.944 47.3896Z" stroke="#ED7D31" stroke-width="5.3485" stroke-linecap="butt" stroke-linejoin="miter" stroke-miterlimit="4" stroke-opacity="1" fill="#0070C0" fill-rule="nonzero" fill-opacity="1" transform="matrix(1.00001 0 0 1 -6.09203 -5.79995)"/><path d="M104.698 91.4729C103.979 91.4735 103.268 91.6159 102.604 91.8917L87.0645 76.2994 87.0645 50.709 100.29 50.709 100.29 61.0686C97.5004 62.286 96.2259 65.5338 97.4433 68.3232 98.6607 71.1123 101.909 72.3868 104.698 71.1694 107.487 69.9521 108.761 66.704 107.544 63.9149 106.988 62.6411 105.972 61.6245 104.698 61.0686L104.698 46.2985 87.0645 46.2985 87.0645 40.3076C89.8537 39.0902 91.1282 35.8424 89.9108 33.053 88.6934 30.2639 85.4454 28.9894 82.6562 30.2068 79.8671 31.4241 78.5926 34.6722 79.81 37.4613 80.3659 38.7351 81.3824 39.7517 82.6562 40.3076L82.6562 78.0429 89.93 85.5569 78.2479 97.239 78.2479 108.026 64.9546 108.026 56.4553 98.0435C57.7829 95.2107 56.5626 91.8379 53.7296 90.5103 50.8968 89.1827 47.524 90.403 46.1964 93.2358 44.8689 96.0688 46.0893 99.4414 48.9221 100.769 50.2254 101.38 51.7122 101.472 53.0807 101.026L62.8893 112.437 78.2479 112.437 78.2479 116.184C75.4587 117.401 74.1843 120.649 75.4016 123.438 76.619 126.228 79.8671 127.502 82.6562 126.285 85.4454 125.067 86.7198 121.819 85.5025 119.03 84.9466 117.756 83.93 116.74 82.6562 116.184L82.6562 98.9781 93.0158 88.6185 99.5159 95.1649C98.5189 98.0325 100.035 101.165 102.903 102.162 105.771 103.159 108.904 101.643 109.901 98.7753 110.898 95.9077 109.381 92.7747 106.513 91.7777 105.93 91.5747 105.316 91.4718 104.698 91.4729Z" stroke="#ED7D31" stroke-width="5.3485" stroke-linecap="butt" stroke-linejoin="miter" stroke-miterlimit="4" stroke-opacity="1" fill="#0070C0" fill-rule="nonzero" fill-opacity="1" transform="matrix(1.00001 0 0 1 -6.09203 -5.79995)"/></g></svg>