<svg width="200" height="200" xmlns="http://www.w3.org/2000/svg" xmlns:xlink="http://www.w3.org/1999/xlink" xml:space="preserve" overflow="hidden"><defs><clipPath id="clip0"><rect x="0" y="0" width="200" height="200"/></clipPath></defs><g clip-path="url(#clip0)"><path d="M190.376 107.076 139.498 18.9511C138.37 17.1581 136.485 15.9783 134.379 15.7476 132.375 15.511 130.373 16.2057 128.947 17.6331L25.4153 117.524 10.002 132.292 27.7538 163.055 48.1508 156.7 77.0141 148.516 76.3276 149.145 88.8486 162.966 128.398 152.037 132.059 133.354 131.116 133.171 186.527 117.456 186.783 117.366C188.811 116.502 190.362 114.797 191.03 112.696 191.647 110.818 191.408 108.763 190.376 107.076ZM15.7591 133.116 26.5411 122.783 44.0755 153.174 29.8887 157.597ZM124.448 148.381 90.3542 157.806 80.9223 147.406 127.215 134.276ZM186.662 111.323C186.417 112.102 185.861 112.744 185.124 113.097L48.5764 151.82 29.9413 119.515 132.153 20.8938C132.604 20.4364 133.242 20.2133 133.88 20.2897 134.575 20.3657 135.2 20.7453 135.587 21.3263L186.465 109.449C186.804 110.014 186.877 110.7 186.662 111.323Z" stroke="#C00000" stroke-width="5.85778" stroke-linecap="butt" stroke-linejoin="miter" stroke-miterlimit="4" stroke-opacity="0.78" fill="#FF0000" fill-rule="nonzero" fill-opacity="1"/></g></svg>