<svg width="219" height="212" xmlns="http://www.w3.org/2000/svg" xmlns:xlink="http://www.w3.org/1999/xlink" xml:space="preserve" overflow="hidden"><defs><clipPath id="clip0"><rect x="121" y="60" width="219" height="212"/></clipPath><clipPath id="clip1"><rect x="122" y="60" width="218" height="211"/></clipPath><clipPath id="clip2"><rect x="122" y="60" width="219" height="211"/></clipPath><clipPath id="clip3"><rect x="122" y="53" width="219" height="218"/></clipPath></defs><g clip-path="url(#clip0)" transform="translate(-121 -60)"><g clip-path="url(#clip1)"><g clip-path="url(#clip2)"><g clip-path="url(#clip3)"><path d="M49.6902 61.4888C43.1102 48.3288 31.7654 56.2701 31.7654 63.7577 31.7654 74.8756 49.6902 88.4893 49.6902 88.4893 49.6902 88.4893 67.6149 74.6487 67.6149 63.7577 67.6149 56.2701 56.497 48.3288 49.6902 61.4888Z" stroke="#4DC878" stroke-width="5.50572" stroke-linecap="butt" stroke-linejoin="miter" stroke-miterlimit="4" stroke-opacity="1" fill="#4DC878" fill-rule="nonzero" fill-opacity="1" transform="matrix(1.00083 0 0 1 122 53.1801)"/><path d="M168.13 38.7992C161.55 25.6392 150.205 33.5806 150.205 40.8412 150.205 51.9591 168.13 65.5729 168.13 65.5729 168.13 65.5729 186.055 51.9591 186.055 41.0681 186.055 33.5806 174.71 25.6392 168.13 38.7992Z" stroke="#4DC878" stroke-width="5.50572" stroke-linecap="butt" stroke-linejoin="miter" stroke-miterlimit="4" stroke-opacity="1" fill="#4DC878" fill-rule="nonzero" fill-opacity="1" transform="matrix(1.00083 0 0 1 122 53.1801)"/><path d="M49.6902 48.1019C52.4129 46.2867 55.5895 45.3792 58.766 45.3792 60.5812 45.3792 62.3963 45.606 63.9846 46.2867 86.4473 30.1771 115.944 27.2275 141.129 38.7992 141.583 35.8495 142.717 32.8999 144.533 30.404 112.087 15.6558 73.968 22.4627 48.5557 47.4212 49.0095 47.6481 49.2364 47.875 49.6902 48.1019Z" stroke="#4DC878" stroke-width="5.50572" stroke-linecap="butt" stroke-linejoin="miter" stroke-miterlimit="4" stroke-opacity="1" fill="#4DC878" fill-rule="nonzero" fill-opacity="1" transform="matrix(1.00083 0 0 1 122 53.1801)"/><path d="M176.071 71.0184C189.004 93.9348 189.458 121.616 177.206 144.759 179.928 147.028 181.743 149.978 182.878 153.155 199.214 125.927 199.214 91.8928 182.878 64.4384 180.836 66.9342 178.567 68.9763 176.071 71.0184Z" stroke="#4DC878" stroke-width="5.50572" stroke-linecap="butt" stroke-linejoin="miter" stroke-miterlimit="4" stroke-opacity="1" fill="#4DC878" fill-rule="nonzero" fill-opacity="1" transform="matrix(1.00083 0 0 1 122 53.1801)"/><path d="M139.541 179.701C100.515 196.492 55.1357 178.567 38.1185 139.541 31.0847 122.978 29.9502 104.599 34.9419 87.3549 32.4461 84.859 30.1771 81.9094 28.1351 78.9597 11.5717 123.658 34.2613 173.348 78.9597 189.912 100.969 198.08 125.246 196.946 146.348 186.735 143.852 184.466 141.583 182.197 139.541 179.701Z" stroke="#4DC878" stroke-width="5.50572" stroke-linecap="butt" stroke-linejoin="miter" stroke-miterlimit="4" stroke-opacity="1" fill="#4DC878" fill-rule="nonzero" fill-opacity="1" transform="matrix(1.00083 0 0 1 122 53.1801)"/><path d="M156.785 156.558C150.205 143.398 138.86 151.339 138.86 158.6 138.86 169.718 156.785 183.332 156.785 183.332 156.785 183.332 174.71 169.945 174.71 158.827 174.71 151.339 163.365 143.398 156.785 156.558Z" stroke="#4DC878" stroke-width="5.50572" stroke-linecap="butt" stroke-linejoin="miter" stroke-miterlimit="4" stroke-opacity="1" fill="#4DC878" fill-rule="nonzero" fill-opacity="1" transform="matrix(1.00083 0 0 1 122 53.1801)"/><path d="M57.4046 109.591C54.9088 109.137 53.3205 106.641 54.0012 104.145 56.7239 91.8928 68.7494 84.1783 81.0018 86.6742 89.8507 88.4893 96.6576 95.2962 98.4728 104.145 98.9266 106.641 97.3383 108.91 95.0693 109.591 94.8424 109.591 94.3886 109.591 94.1617 109.591 92.1197 109.591 90.0776 108.002 89.6238 105.96 88.0356 98.6997 80.7749 93.9348 73.5142 95.5231 68.2956 96.6576 64.2115 100.742 63.077 105.96 62.1694 108.456 59.6736 110.044 57.4046 109.591Z" stroke="#4DC878" stroke-width="5.50572" stroke-linecap="butt" stroke-linejoin="miter" stroke-miterlimit="4" stroke-opacity="1" fill="#4DC878" fill-rule="nonzero" fill-opacity="1" transform="matrix(1.00083 0 0 1 122 53.1801)"/><path d="M108.91 156.558C96.2038 156.558 84.1783 150.886 76.0101 141.356 74.4218 139.314 74.6487 136.591 76.6908 135.003 78.5059 133.415 81.2287 133.642 82.817 135.457 95.0693 149.751 116.624 151.566 131.146 139.314 132.507 138.18 133.868 136.818 135.003 135.457 136.591 133.415 139.314 133.188 141.356 134.776 143.398 136.364 143.625 139.087 142.037 141.129 142.037 141.129 141.81 141.356 141.81 141.356 133.642 150.886 121.616 156.558 108.91 156.558Z" stroke="#4DC878" stroke-width="5.50572" stroke-linecap="butt" stroke-linejoin="miter" stroke-miterlimit="4" stroke-opacity="1" fill="#4DC878" fill-rule="nonzero" fill-opacity="1" transform="matrix(1.00083 0 0 1 122 53.1801)"/><path d="M160.415 109.591C160.188 109.591 159.735 109.591 159.508 109.591 157.466 109.591 155.424 108.002 154.97 105.96 153.382 98.6997 146.121 93.9348 138.86 95.5231 133.642 96.6576 129.557 100.742 128.423 105.96 127.742 108.456 125.473 109.818 122.978 109.364 120.709 108.91 119.12 106.414 119.574 104.145 122.297 91.8928 134.322 84.1783 146.575 86.6742 155.424 88.4893 162.23 95.2962 164.046 104.145 164.499 106.641 162.911 109.137 160.415 109.591Z" stroke="#4DC878" stroke-width="5.50572" stroke-linecap="butt" stroke-linejoin="miter" stroke-miterlimit="4" stroke-opacity="1" fill="#4DC878" fill-rule="nonzero" fill-opacity="1" transform="matrix(1.00083 0 0 1 122 53.1801)"/></g></g></g></g></svg>