<svg width="212" height="212" xmlns="http://www.w3.org/2000/svg" xmlns:xlink="http://www.w3.org/1999/xlink" xml:space="preserve" overflow="hidden"><defs><clipPath id="clip0"><rect x="360" y="44" width="212" height="212"/></clipPath><clipPath id="clip1"><rect x="361" y="45" width="211" height="211"/></clipPath><clipPath id="clip2"><rect x="361" y="45" width="211" height="211"/></clipPath><clipPath id="clip3"><rect x="361" y="45" width="211" height="211"/></clipPath></defs><g clip-path="url(#clip0)" transform="translate(-360 -44)"><g clip-path="url(#clip1)"><g clip-path="url(#clip2)"><g clip-path="url(#clip3)"><path d="M425.839 125.688C423.057 126.902 421.786 130.14 423 132.922 424.214 135.703 427.453 136.974 430.234 135.76 433.016 134.546 434.286 131.307 433.073 128.526 432.518 127.256 431.505 126.242 430.234 125.688L430.234 110.955 421.443 110.955 421.443 102.779C424.224 101.565 425.495 98.3263 424.281 95.5448 423.067 92.7636 419.828 91.4928 417.047 92.7067 414.266 93.9206 412.995 97.1594 414.209 99.9407 414.763 101.211 415.777 102.225 417.047 102.779L417.047 110.953 405.657 110.938C405.235 112.113 404.921 113.289 404.591 114.527 404.521 114.795 404.446 115.065 404.371 115.333L425.839 115.353Z" stroke="#4DC878" stroke-width="5.33333" stroke-linecap="butt" stroke-linejoin="miter" stroke-miterlimit="4" stroke-opacity="1" fill="#A9D18E" fill-rule="nonzero" fill-opacity="1"/><path d="M539.031 157.125 523.866 130.75 523.866 129.651C525.158 93.1746 496.635 62.5577 460.159 61.2657 460.148 61.2654 460.137 61.265 460.126 61.2646 459.308 61.2367 458.495 61.2221 457.684 61.2206 422.168 61.1893 393.016 89.3115 391.771 124.806L391.771 129.642C391.685 150.443 401.268 170.103 417.706 182.849L417.706 238.472 487.16 238.472 487.16 212.097 497.93 212.097C512.242 212.068 523.837 200.473 523.866 186.161L523.866 172.534 533.536 172.534C539.251 171.855 544.306 165.259 539.031 157.125ZM536.455 165.696C535.833 166.972 534.636 167.871 533.238 168.114L519.47 168.114 519.47 186.137C519.453 198.026 509.819 207.66 497.93 207.677L482.765 207.677 482.765 234.052 422.102 234.052 422.102 180.691 420.397 179.372C405.008 167.48 396.048 149.091 396.167 129.644L396.167 124.888C397.292 91.7545 424.536 65.5091 457.689 65.6209 458.446 65.6209 459.207 65.6348 459.972 65.6626 494.012 66.8926 520.633 95.4435 519.481 129.486L519.481 131.917 520.065 132.934 535.231 159.309 535.29 159.41 535.354 159.509C536.782 161.234 537.203 163.58 536.464 165.694Z" stroke="#4DC878" stroke-width="5.33333" stroke-linecap="butt" stroke-linejoin="miter" stroke-miterlimit="4" stroke-opacity="1" fill="#A9D18E" fill-rule="nonzero" fill-opacity="1"/><path d="M489.578 92.2552C488.937 92.2607 488.302 92.3798 487.703 92.6069L480.786 86.3824 480.786 76.65C479.336 76.072 477.859 75.4917 476.391 74.995L476.391 88.2528 484.523 95.5785C483.324 98.3661 484.611 101.598 487.399 102.798 490.187 103.997 493.419 102.709 494.618 99.9215 495.817 97.1339 494.53 93.9019 491.742 92.7025 491.058 92.4084 490.322 92.2563 489.578 92.2552Z" stroke="#4DC878" stroke-width="5.33333" stroke-linecap="butt" stroke-linejoin="miter" stroke-miterlimit="4" stroke-opacity="1" fill="#A9D18E" fill-rule="nonzero" fill-opacity="1"/><path d="M465.401 136.214C464.684 136.214 463.975 136.356 463.313 136.631L447.818 121.083 447.818 95.5653 461.005 95.5653 461.005 105.895C458.224 107.109 456.953 110.348 458.167 113.129 459.381 115.911 462.62 117.182 465.401 115.968 468.182 114.754 469.453 111.515 468.239 108.734 467.685 107.463 466.671 106.45 465.401 105.895L465.401 91.1672 447.818 91.1672 447.818 85.1933C450.599 83.9794 451.87 80.7408 450.656 77.9593 449.442 75.1781 446.203 73.9072 443.422 75.1211 440.641 76.335 439.37 79.5739 440.584 82.3551 441.138 83.6253 442.152 84.639 443.422 85.1933L443.422 122.822 450.675 130.314 439.026 141.963 439.026 152.72 425.77 152.72 417.295 142.766C418.619 139.941 417.402 136.578 414.577 135.254 411.753 133.93 408.389 135.147 407.065 137.971 405.742 140.796 406.959 144.159 409.783 145.483 411.083 146.092 412.566 146.184 413.93 145.739L423.711 157.118 439.026 157.118 439.026 160.854C436.245 162.068 434.974 165.307 436.188 168.088 437.402 170.87 440.641 172.14 443.422 170.927 446.203 169.713 447.474 166.474 446.26 163.693 445.706 162.422 444.692 161.409 443.422 160.854L443.422 143.697 453.752 133.367 460.234 139.895C459.24 142.755 460.752 145.879 463.611 146.873 466.471 147.867 469.595 146.355 470.589 143.495 471.583 140.636 470.071 137.512 467.211 136.518 466.629 136.315 466.017 136.212 465.401 136.214Z" stroke="#4DC878" stroke-width="5.33333" stroke-linecap="butt" stroke-linejoin="miter" stroke-miterlimit="4" stroke-opacity="1" fill="#A9D18E" fill-rule="nonzero" fill-opacity="1"/></g></g></g></g></svg>