<svg width="198" height="198" xmlns="http://www.w3.org/2000/svg" xmlns:xlink="http://www.w3.org/1999/xlink" xml:space="preserve" overflow="hidden"><defs><clipPath id="clip0"><rect x="318" y="92" width="198" height="198"/></clipPath><clipPath id="clip1"><rect x="319" y="93" width="197" height="197"/></clipPath><clipPath id="clip2"><rect x="319" y="93" width="197" height="197"/></clipPath><clipPath id="clip3"><rect x="319" y="93" width="197" height="197"/></clipPath></defs><g clip-path="url(#clip0)" transform="translate(-318 -92)"><g clip-path="url(#clip1)"><g clip-path="url(#clip2)"><g clip-path="url(#clip3)"><path d="M516 93 516 99.1562C516 110.827 514.974 121.729 512.922 131.861 510.87 141.993 507.696 151.581 503.399 160.623 499.102 169.665 493.78 178.258 487.431 186.402 481.083 194.546 473.58 202.53 464.922 210.354L446.55 265.375 417.5 265.375 417.5 243.54C408.65 248.734 399.705 253.736 390.663 258.545L350.455 218.337C355.264 209.295 360.266 200.35 365.46 191.5L343.625 191.5 343.625 162.45 398.646 144.174C406.406 135.517 414.358 127.982 422.502 121.569 430.646 115.156 439.271 109.833 448.377 105.601 457.484 101.369 467.07 98.2264 477.139 96.1743 487.207 94.1222 498.108 93.0641 509.844 93L516 93ZM372.675 179.188C374.534 176.238 376.394 173.32 378.254 170.434 380.114 167.548 382.102 164.695 384.218 161.873L355.938 171.3 355.938 179.188 372.675 179.188ZM392.971 243.251C396.242 241.392 399.512 239.564 402.783 237.768 406.053 235.972 409.324 234.113 412.594 232.189L376.811 196.406C374.951 199.676 373.124 202.947 371.328 206.217 369.533 209.488 367.673 212.79 365.749 216.125L392.971 243.251ZM447.127 224.782C444.306 226.834 441.452 228.791 438.566 230.65 435.68 232.509 432.763 234.401 429.812 236.325L429.812 253.062 437.7 253.062 447.127 224.782ZM464.73 193.328C471.079 186.979 476.593 180.534 481.275 173.993 485.957 167.452 489.932 160.591 493.203 153.408 496.473 146.226 498.91 138.691 500.513 130.803 502.117 122.916 503.142 114.451 503.591 105.409 494.614 105.729 486.181 106.723 478.293 108.391 470.405 110.058 462.871 112.527 455.688 115.797 448.505 119.068 441.612 123.012 435.007 127.629 428.401 132.246 421.893 137.761 415.48 144.174 409.131 150.394 403.328 156.935 398.069 163.797 392.811 170.658 387.873 177.905 383.256 185.536L423.464 225.744C431.031 221.127 438.246 216.189 445.107 210.931 451.968 205.672 458.509 199.804 464.73 193.328ZM442.125 191.5C438.727 191.5 435.552 190.858 432.602 189.576 429.652 188.294 427.023 186.53 424.714 184.286 422.406 182.041 420.643 179.444 419.424 176.494 418.205 173.544 417.564 170.338 417.5 166.875 417.5 163.476 418.142 160.302 419.424 157.352 420.706 154.402 422.47 151.773 424.714 149.464 426.958 147.156 429.556 145.392 432.506 144.174 435.456 142.955 438.662 142.314 442.125 142.25 445.523 142.25 448.698 142.891 451.648 144.174 454.598 145.456 457.227 147.22 459.536 149.464 461.844 151.709 463.607 154.306 464.826 157.256 466.045 160.206 466.686 163.412 466.75 166.875 466.75 170.274 466.108 173.448 464.826 176.398 463.544 179.348 461.78 181.977 459.536 184.286 457.292 186.594 454.694 188.358 451.744 189.576 448.794 190.795 445.588 191.436 442.125 191.5ZM442.125 154.562C440.394 154.562 438.79 154.883 437.315 155.524 435.841 156.166 434.558 157.031 433.468 158.122 432.378 159.212 431.479 160.526 430.774 162.065 430.069 163.604 429.748 165.208 429.812 166.875 429.812 168.606 430.133 170.21 430.774 171.685 431.416 173.159 432.282 174.442 433.372 175.532 434.461 176.622 435.776 177.52 437.315 178.226 438.854 178.931 440.458 179.252 442.125 179.188 443.856 179.188 445.46 178.867 446.935 178.226 448.409 177.584 449.692 176.719 450.782 175.628 451.872 174.538 452.771 173.224 453.476 171.685 454.181 170.146 454.502 168.542 454.438 166.875 454.438 165.144 454.117 163.54 453.476 162.065 452.834 160.591 451.968 159.308 450.878 158.218 449.789 157.128 448.474 156.23 446.935 155.524 445.396 154.819 443.792 154.498 442.125 154.562ZM343.625 240.75C347.024 240.75 350.198 241.392 353.148 242.674 356.098 243.956 358.727 245.72 361.036 247.964 363.344 250.208 365.108 252.806 366.326 255.756 367.545 258.706 368.186 261.912 368.25 265.375 368.25 268.773 367.609 271.948 366.326 274.898 365.044 277.848 363.28 280.477 361.036 282.786 358.791 285.094 356.194 286.857 353.244 288.076 350.294 289.295 347.088 289.936 343.625 290L319 290 319 265.375C319 261.977 319.641 258.802 320.924 255.852 322.206 252.902 323.97 250.273 326.214 247.964 328.459 245.656 331.056 243.893 334.006 242.674 336.956 241.455 340.162 240.814 343.625 240.75ZM343.625 277.688C345.356 277.688 346.96 277.367 348.435 276.726 349.909 276.084 351.192 275.218 352.282 274.128 353.372 273.039 354.27 271.724 354.976 270.185 355.681 268.646 356.002 267.042 355.938 265.375 355.938 263.644 355.617 262.04 354.976 260.565 354.334 259.091 353.469 257.808 352.378 256.718 351.288 255.628 349.974 254.729 348.435 254.024 346.896 253.319 345.292 252.998 343.625 253.062 341.894 253.062 340.29 253.383 338.815 254.024 337.341 254.666 336.058 255.532 334.968 256.622 333.878 257.711 332.98 259.026 332.274 260.565 331.569 262.104 331.248 263.708 331.312 265.375L331.312 277.688 343.625 277.688Z" fill="#BF9000" fill-rule="nonzero" fill-opacity="1"/></g></g></g></g></svg>