<svg width="202" height="207" xmlns="http://www.w3.org/2000/svg" xmlns:xlink="http://www.w3.org/1999/xlink" xml:space="preserve" overflow="hidden"><g transform="translate(-1034 -305)"><g><g><g><path d="M195.261 190.123C195.261 192.949 192.949 195.261 190.123 195.261 187.297 195.261 184.984 192.949 184.984 190.123L184.984 66.7999 195.261 66.7999 195.261 190.123ZM56.523 195.261C53.6968 195.261 51.3845 192.949 51.3845 190.123L51.3845 51.3845 169.569 51.3845 169.569 190.123C169.569 191.921 169.826 193.72 170.34 195.261L56.523 195.261ZM184.984 51.3845 184.984 35.9692 35.9692 35.9692 35.9692 190.123C35.9692 201.427 45.2184 210.676 56.523 210.676L190.123 210.676C201.427 210.676 210.676 201.427 210.676 190.123L210.676 51.3845 184.984 51.3845Z" fill="#D55EA0" fill-rule="nonzero" fill-opacity="1" transform="matrix(1 0 0 1.00225 1015.35 286.446)"/><path d="M61.6614 66.7999 159.292 66.7999 159.292 77.0768 61.6614 77.0768Z" fill="#D55EA0" fill-rule="nonzero" fill-opacity="1" transform="matrix(1 0 0 1.00225 1015.35 286.446)"/><path d="M115.615 87.3537 159.292 87.3537 159.292 97.6306 115.615 97.6306Z" fill="#D55EA0" fill-rule="nonzero" fill-opacity="1" transform="matrix(1 0 0 1.00225 1015.35 286.446)"/><path d="M115.615 107.907 159.292 107.907 159.292 118.184 115.615 118.184Z" fill="#D55EA0" fill-rule="nonzero" fill-opacity="1" transform="matrix(1 0 0 1.00225 1015.35 286.446)"/><path d="M61.6614 87.3537 105.338 87.3537 105.338 118.184 61.6614 118.184Z" fill="#D55EA0" fill-rule="nonzero" fill-opacity="1" transform="matrix(1 0 0 1.00225 1015.35 286.446)"/><path d="M61.6614 128.461 159.292 128.461 159.292 138.738 61.6614 138.738Z" fill="#D55EA0" fill-rule="nonzero" fill-opacity="1" transform="matrix(1 0 0 1.00225 1015.35 286.446)"/><path d="M115.615 149.015 159.292 149.015 159.292 179.846 115.615 179.846Z" fill="#D55EA0" fill-rule="nonzero" fill-opacity="1" transform="matrix(1 0 0 1.00225 1015.35 286.446)"/><path d="M61.6614 149.015 105.338 149.015 105.338 159.292 61.6614 159.292Z" fill="#D55EA0" fill-rule="nonzero" fill-opacity="1" transform="matrix(1 0 0 1.00225 1015.35 286.446)"/><path d="M61.6614 169.569 105.338 169.569 105.338 179.846 61.6614 179.846Z" fill="#D55EA0" fill-rule="nonzero" fill-opacity="1" transform="matrix(1 0 0 1.00225 1015.35 286.446)"/></g></g></g></g></svg>